<svg width="1728" height="1117" viewBox="0 0 1728 1117" fill="none" xmlns="http://www.w3.org/2000/svg">
<path d="M78 61H128L106.23 83.9869V110.157H78V61Z" fill="#2FBE16"/>
<path d="M98 387H158L131.876 414.584V445.989H98V387Z" fill="#2FBE16"/>
<path d="M200 195H300L256.461 240.974V293.315H200V195Z" fill="#2FBE16"/>
<path d="M421 386H451L437.938 399.792V415.494H421V386Z" fill="#2FBE16"/>
<path d="M250 434H300L278.23 456.987V483.157H250V434Z" fill="#2FBE16"/>
<path d="M254 870H314L287.876 897.584V928.989H254V870Z" fill="#2FBE16"/>
<path d="M369 682H469L425.461 727.974V780.315H369V682Z" fill="#2FBE16"/>
<path d="M543 807H573L559.938 820.792V836.494H543V807Z" fill="#2FBE16"/>
<path d="M515 31H565L543.23 53.9869V80.1573H515V31Z" fill="#2FBE16"/>
<path d="M535 357H595L568.876 384.584V415.989H535V357Z" fill="#2FBE16"/>
<path d="M637 165H737L693.461 210.974V263.315H637V165Z" fill="#2FBE16"/>
<path d="M811 290H841L827.938 303.792V319.494H811V290Z" fill="#2FBE16"/>
<path d="M21 707H71L49.2303 729.987V756.157H21V707Z" fill="#2FBE16"/>
<path d="M41 1033H101L74.8764 1060.58V1091.99H41V1033Z" fill="#2FBE16"/>
<path d="M143 841H243L199.461 886.974V939.315H143V841Z" fill="#2FBE16"/>
<path d="M317 966H347L333.938 979.792V995.494H317V966Z" fill="#2FBE16"/>
<path d="M565 715H615L593.23 737.987V764.157H565V715Z" fill="#2FBE16"/>
<path d="M635 993H695L668.876 1020.58V1051.99H635V993Z" fill="#2FBE16"/>
<path d="M737 801H837L793.461 846.974V899.315H737V801Z" fill="#2FBE16"/>
<path d="M911 926H941L927.938 939.792V955.494H911V926Z" fill="#2FBE16"/>
<path fill-rule="evenodd" clip-rule="evenodd" d="M826 159L811 189H881V264L911 250.25V189V164V159H826Z" fill="#2FBE16"/>
<path fill-rule="evenodd" clip-rule="evenodd" d="M1364 491L1349 521H1419V596L1449 582.25V521V496V491H1364Z" fill="#2FBE16"/>
<path fill-rule="evenodd" clip-rule="evenodd" d="M1456.5 707L1449 722H1484V759.5L1499 752.625V722V709.5V707H1456.5Z" fill="#2FBE16"/>
<path fill-rule="evenodd" clip-rule="evenodd" d="M1511 384L1499 408H1555V468L1579 457V408V388V384H1511Z" fill="#2FBE16"/>
<path fill-rule="evenodd" clip-rule="evenodd" d="M1660 373L1651 391H1693V436L1711 427.75V391V376V373H1660Z" fill="#2FBE16"/>
<path fill-rule="evenodd" clip-rule="evenodd" d="M1558 577L1549 595H1591V640L1609 631.75V595V580V577H1558Z" fill="#2FBE16"/>
<path fill-rule="evenodd" clip-rule="evenodd" d="M1104 168L1089 198H1159V273L1189 259.25V198V173V168H1104Z" fill="#2FBE16"/>
<path fill-rule="evenodd" clip-rule="evenodd" d="M1196.5 384L1189 399H1224V436.5L1239 429.625V399V386.5V384H1196.5Z" fill="#2FBE16"/>
<path fill-rule="evenodd" clip-rule="evenodd" d="M1251 61L1239 85H1295V145L1319 134V85V65V61H1251Z" fill="#2FBE16"/>
<path fill-rule="evenodd" clip-rule="evenodd" d="M1400 50L1391 68H1433V113L1451 104.75V68V53V50H1400Z" fill="#2FBE16"/>
<path fill-rule="evenodd" clip-rule="evenodd" d="M1298 254L1289 272H1331V317L1349 308.75V272V257V254H1298Z" fill="#2FBE16"/>
</svg>
